<svg width="20" height="20" viewBox="0 0 20 20" fill="none" xmlns="http://www.w3.org/2000/svg">
<path d="M18.3333 10H16.2667C15.9025 9.99923 15.5481 10.1178 15.2576 10.3375C14.9672 10.5572 14.7567 10.866 14.6583 11.2167L12.7 18.1833C12.6874 18.2266 12.6611 18.2646 12.625 18.2917C12.5889 18.3187 12.5451 18.3333 12.5 18.3333C12.4549 18.3333 12.4111 18.3187 12.375 18.2917C12.3389 18.2646 12.3126 18.2266 12.3 18.1833L7.7 1.81667C7.68738 1.7734 7.66106 1.73538 7.625 1.70834C7.58894 1.68129 7.54508 1.66667 7.5 1.66667C7.45492 1.66667 7.41106 1.68129 7.375 1.70834C7.33894 1.73538 7.31262 1.7734 7.3 1.81667L5.34167 8.78334C5.24372 9.13263 5.03449 9.44043 4.74572 9.66002C4.45696 9.8796 4.10443 9.99897 3.74167 10H1.66667" stroke="#2563EB" stroke-width="1.66667" stroke-linecap="round" stroke-linejoin="round"/>
</svg>
